<?xml version="1.0" encoding="utf-8"?>
<svg version="1.1" xmlns="http://www.w3.org/2000/svg" xmlns:xlink="http://www.w3.org/1999/xlink">
    <svg id="github" viewBox="0 0 13.6 13.6" fill="currentColor">
        <path d="M0,7c0-1.2,0.3-2.4,0.9-3.4c0.6-1,1.4-1.9,2.5-2.5c1-0.6,2.2-0.9,3.4-0.9c1.2,0,2.4,0.3,3.4,0.9 c1,0.6,1.9,1.4,2.5,2.5c0.6,1,0.9,2.2,0.9,3.4c0,1.5-0.4,2.8-1.3,4c-0.9,1.2-2,2-3.4,2.5c-0.2,0-0.3,0-0.4-0.1 c-0.1-0.1-0.1-0.2-0.1-0.3v-1.9c0-0.6-0.2-1-0.5-1.3C8.4,10,8.7,9.9,9,9.8c0.3-0.1,0.5-0.2,0.8-0.3c0.3-0.2,0.5-0.4,0.7-0.6 C10.7,8.7,10.9,8.4,11,8c0.1-0.4,0.2-0.8,0.2-1.3c0-0.7-0.2-1.3-0.7-1.8c0.2-0.5,0.2-1.1-0.1-1.8C10.2,2.9,10,3,9.7,3.1 C9.4,3.2,9.1,3.3,8.9,3.5L8.5,3.7C8,3.5,7.4,3.5,6.8,3.5S5.7,3.5,5.1,3.7C5,3.6,4.9,3.5,4.7,3.5C4.6,3.4,4.3,3.2,4,3.1 C3.7,3,3.4,2.9,3.2,3C3,3.7,3,4.3,3.2,4.8C2.7,5.3,2.5,5.9,2.5,6.6c0,0.5,0.1,0.9,0.2,1.3c0.1,0.4,0.3,0.7,0.5,0.9 c0.2,0.2,0.4,0.4,0.7,0.6c0.3,0.2,0.6,0.3,0.8,0.3S5.2,10,5.6,10c-0.2,0.2-0.4,0.5-0.4,0.9C5,11,4.9,11,4.7,11c-0.1,0-0.3,0-0.5,0 c-0.2,0-0.4-0.1-0.6-0.2c-0.2-0.1-0.4-0.3-0.5-0.6C3,10.2,2.9,10,2.7,9.9C2.6,9.8,2.4,9.7,2.3,9.7l-0.2,0c-0.1,0-0.2,0-0.3,0 c0,0-0.1,0.1,0,0.1c0,0,0,0.1,0.1,0.1C1.9,9.9,2,10,2,10l0.1,0c0.1,0.1,0.3,0.2,0.4,0.3c0.1,0.2,0.2,0.3,0.3,0.5l0.1,0.2 c0.1,0.2,0.2,0.4,0.4,0.5c0.2,0.1,0.4,0.2,0.6,0.3c0.2,0,0.4,0.1,0.6,0.1c0.2,0,0.4,0,0.5,0l0.2,0c0,0.2,0,0.5,0,0.8 c0,0.3,0,0.5,0,0.5c0,0.1,0,0.2-0.1,0.3c-0.1,0.1-0.2,0.1-0.4,0.1C3.3,13,2.2,12.2,1.3,11C0.4,9.8,0,8.5,0,7z"/>
    </svg>
    <svg id="twitter" viewBox="0 0 15.8 12.9" fill="currentColor">
        <path d="M0,11.4c0.2,0,0.5,0,0.8,0c1.5,0,2.8-0.5,4-1.4c-0.7,0-1.3-0.2-1.9-0.6C2.4,9,2,8.5,1.8,7.8 c0.2,0,0.4,0.1,0.6,0.1c0.3,0,0.6,0,0.9-0.1C2.5,7.6,1.9,7.2,1.4,6.6C0.9,6,0.6,5.3,0.6,4.6v0c0.5,0.3,0.9,0.4,1.5,0.4 C1.7,4.6,1.3,4.3,1.1,3.8c-0.3-0.5-0.4-1-0.4-1.5c0-0.6,0.1-1.1,0.4-1.6c0.8,1,1.8,1.8,3,2.4c1.2,0.6,2.4,0.9,3.7,1 C7.7,3.7,7.7,3.5,7.7,3.2c0-0.9,0.3-1.7,0.9-2.3S10.1,0,11,0c0.9,0,1.7,0.3,2.4,1c0.7-0.1,1.4-0.4,2.1-0.8C15.1,1,14.7,1.6,14,2 c0.6-0.1,1.2-0.2,1.9-0.5c-0.4,0.7-1,1.2-1.6,1.7c0,0.1,0,0.2,0,0.4c0,0.9-0.1,1.7-0.4,2.6c-0.3,0.9-0.6,1.7-1.2,2.5 c-0.5,0.8-1.1,1.5-1.9,2.1s-1.6,1.1-2.6,1.5c-1,0.4-2.1,0.5-3.2,0.5C3.2,12.9,1.5,12.4,0,11.4z"/>
    </svg>
</svg>
